<svg id="Calque_1" data-name="Calque 1" xmlns="http://www.w3.org/2000/svg" viewBox="0 0 285 48.48"><defs><style>.cls-1,.cls-2,.cls-4,.cls-5{fill:#1e88e5;}.cls-1{opacity:0.55;}.cls-1,.cls-2,.cls-4{isolation:isolate;}.cls-2{font-size:38.9px;font-family:Rubik;letter-spacing:-1px;}.cls-3{letter-spacing:-2px;}.cls-4{opacity:0.2;}.cls-6{fill:none;stroke:#fff;stroke-linecap:round;stroke-miterlimit:10;stroke-width:2.04px;}</style></defs><title>logo_FreeYourInbox</title><path class="cls-1" d="M209.9,25.2a1.08,1.08,0,0,1-.7.3H207a0.91,0.91,0,0,1-.7-0.3,1.08,1.08,0,0,1-.3-0.7V22.3a0.91,0.91,0,0,1,.3-0.7,1.08,1.08,0,0,1,.7-0.3h2.2a0.91,0.91,0,0,1,.7.3,1.08,1.08,0,0,1,.3.7v2.2A0.55,0.55,0,0,1,209.9,25.2Z" transform="translate(-2.9 -9.9)"/><text class="cls-2" transform="translate(67.49 38.76)">f<tspan class="cls-3" x="13.19" y="0">r</tspan><tspan x="25.48" y="0">ee</tspan></text><path class="cls-1" d="M141.3,56h-1.6a1,1,0,0,1-1-1V54.7l3.7-8.1-7.7-17.1V29.2a1,1,0,0,1,1-1h1.6a1.15,1.15,0,0,1,1.1.9l6,13.2,6.1-13.2a1.15,1.15,0,0,1,1.1-.9h1.6a1,1,0,0,1,1,1v0.3L142.5,55A1.33,1.33,0,0,1,141.3,56Z" transform="translate(-2.9 -9.9)"/><path class="cls-1" d="M171.7,38.6a10.87,10.87,0,0,1-.1,1.8,9.41,9.41,0,0,1-2.7,6.3,10,10,0,0,1-13,0,9.62,9.62,0,0,1-2.7-6.3V36.7a9.41,9.41,0,0,1,2.7-6.3,10,10,0,0,1,13,0,9.62,9.62,0,0,1,2.7,6.3A11.48,11.48,0,0,1,171.7,38.6Zm-5.3-5.7a6.08,6.08,0,0,0-8,0,7,7,0,0,0-1.7,4v3.3a6.4,6.4,0,0,0,1.7,4,6.08,6.08,0,0,0,8,0,7,7,0,0,0,1.7-4,9.15,9.15,0,0,0,.1-1.6,10.28,10.28,0,0,0-.1-1.7A6.4,6.4,0,0,0,166.4,32.9Z" transform="translate(-2.9 -9.9)"/><path class="cls-1" d="M173.4,28.7a1.08,1.08,0,0,1,.7-0.3h1.4a0.91,0.91,0,0,1,.7.3,1.08,1.08,0,0,1,.3.7V39.7a6.54,6.54,0,0,0,1.3,4.5,5,5,0,0,0,3.9,1.5,5.12,5.12,0,0,0,3.9-1.5,6.45,6.45,0,0,0,1.4-4.4V29.5a0.91,0.91,0,0,1,.3-0.7,1.08,1.08,0,0,1,.7-0.3h1.4a0.91,0.91,0,0,1,.7.3,1.08,1.08,0,0,1,.3.7V47.6a0.91,0.91,0,0,1-.3.7,1.08,1.08,0,0,1-.7.3H188a0.91,0.91,0,0,1-.7-0.3,1.08,1.08,0,0,1-.3-0.7V46.4a6.7,6.7,0,0,1-5.8,2.6,8.14,8.14,0,0,1-6-2.3,8.9,8.9,0,0,1-2.2-6.4V29.5A2,2,0,0,1,173.4,28.7Z" transform="translate(-2.9 -9.9)"/><path class="cls-1" d="M203.7,28.7a1.08,1.08,0,0,1,.3.7v1.2a0.91,0.91,0,0,1-.3.7,1.08,1.08,0,0,1-.7.3h-2.3a4.52,4.52,0,0,0-3.3,1.1,4.41,4.41,0,0,0-1.1,3.3V47.4a0.91,0.91,0,0,1-.3.7,1.08,1.08,0,0,1-.7.3h-1.4a0.91,0.91,0,0,1-.7-0.3,1.08,1.08,0,0,1-.3-0.7V29.5a0.91,0.91,0,0,1,.3-0.7,1.08,1.08,0,0,1,.7-0.3h1.4a0.91,0.91,0,0,1,.7.3,1.08,1.08,0,0,1,.3.7v1.2a4.44,4.44,0,0,1,1.9-1.7,5.86,5.86,0,0,1,2.8-.5h2A0.62,0.62,0,0,1,203.7,28.7Z" transform="translate(-2.9 -9.9)"/><path class="cls-1" d="M229.6,48.3a1.08,1.08,0,0,1-.7.3h-1.4a0.91,0.91,0,0,1-.7-0.3,1.08,1.08,0,0,1-.3-0.7V37.3a6.45,6.45,0,0,0-1.4-4.4,6.08,6.08,0,0,0-8,0,6,6,0,0,0-1.5,4.4V47.6a0.91,0.91,0,0,1-.3.7,1.08,1.08,0,0,1-.7.3H213a0.91,0.91,0,0,1-.7-0.3,1.08,1.08,0,0,1-.3-0.7V29.5a0.91,0.91,0,0,1,.3-0.7,1.08,1.08,0,0,1,.7-0.3h1.4a0.91,0.91,0,0,1,.7.3,1.08,1.08,0,0,1,.3.7v1.2a6.54,6.54,0,0,1,2.4-1.9,8.1,8.1,0,0,1,3.7-.8,9.26,9.26,0,0,1,4.4,1.1,7.23,7.23,0,0,1,3,3,9.77,9.77,0,0,1,1.1,4.6V47.6A1.61,1.61,0,0,1,229.6,48.3Z" transform="translate(-2.9 -9.9)"/><path class="cls-1" d="M250.4,38.5v1.3a10.77,10.77,0,0,1-1.3,4.9,7.6,7.6,0,0,1-3.2,3.2,8.23,8.23,0,0,1-4.4,1.1,7.1,7.1,0,0,1-6-2.6v1.2a0.91,0.91,0,0,1-.3.7,1.08,1.08,0,0,1-.7.3H233a0.91,0.91,0,0,1-.7-0.3,1.08,1.08,0,0,1-.3-0.7V22.1a0.91,0.91,0,0,1,.3-0.7,1.08,1.08,0,0,1,.7-0.3h1.4a0.91,0.91,0,0,1,.7.3,1.08,1.08,0,0,1,.3.7v8.6a6.54,6.54,0,0,1,2.4-1.9,8.1,8.1,0,0,1,3.7-.8,9.26,9.26,0,0,1,4.4,1.1,8.66,8.66,0,0,1,3.1,3.2,10.77,10.77,0,0,1,1.3,4.9A4.51,4.51,0,0,1,250.4,38.5Zm-5.2,5.6a7.64,7.64,0,0,0,1.7-4.5V38.5a8.24,8.24,0,0,0-1.5-5.2,5,5,0,0,0-4.2-1.9,5.28,5.28,0,0,0-3.9,1.5,6.22,6.22,0,0,0-1.7,4.2v3.1a5.91,5.91,0,0,0,1.7,4,5.28,5.28,0,0,0,3.9,1.5A5.06,5.06,0,0,0,245.2,44.1Z" transform="translate(-2.9 -9.9)"/><path class="cls-1" d="M270.1,38.6a10.87,10.87,0,0,1-.1,1.8,9.41,9.41,0,0,1-2.7,6.3,10,10,0,0,1-13,0,9.62,9.62,0,0,1-2.7-6.3V36.7a9.41,9.41,0,0,1,2.7-6.3,10,10,0,0,1,13,0,9.62,9.62,0,0,1,2.7,6.3A11.48,11.48,0,0,1,270.1,38.6Zm-5.3-5.7a6.08,6.08,0,0,0-8,0,7,7,0,0,0-1.7,4v3.3a6.4,6.4,0,0,0,1.7,4,6.08,6.08,0,0,0,8,0,7,7,0,0,0,1.7-4,9.15,9.15,0,0,0,.1-1.6,10.28,10.28,0,0,0-.1-1.7A6.4,6.4,0,0,0,264.8,32.9Z" transform="translate(-2.9 -9.9)"/><path class="cls-1" d="M272.9,47.9l-0.5.5a1.45,1.45,0,0,1-.7.2h-1.8a0.91,0.91,0,0,1-.7-0.3,0.86,0.86,0,0,1-.3-0.6,0.76,0.76,0,0,1,.2-0.5l7.1-8.9-6.7-8.4a1.06,1.06,0,0,1-.2-0.5,0.86,0.86,0,0,1,.3-0.6,0.91,0.91,0,0,1,.7-0.3h1.9a1.45,1.45,0,0,1,.7.2,1.2,1.2,0,0,1,.5.5l5.2,6.5,5.1-6.5,0.5-.5a1.45,1.45,0,0,1,.7-0.2h1.8a0.91,0.91,0,0,1,.7.3,0.86,0.86,0,0,1,.3.6,0.76,0.76,0,0,1-.2.5l-6.8,8.5,7,8.8a1.06,1.06,0,0,1,.2.5,0.86,0.86,0,0,1-.3.6,0.91,0.91,0,0,1-.7.3H285a1.45,1.45,0,0,1-.7-0.2,1.2,1.2,0,0,1-.5-0.5L278.3,41Z" transform="translate(-2.9 -9.9)"/><path class="cls-4" d="M37.4,45.3H10.5a7.6,7.6,0,0,1-7.6-7.6V17.5a7.6,7.6,0,0,1,7.6-7.6H37.4A7.6,7.6,0,0,1,45,17.5V37.6A7.56,7.56,0,0,1,37.4,45.3Z" transform="translate(-2.9 -9.9)"/><path class="cls-1" d="M42.7,50.5h-27a7.6,7.6,0,0,1-7.6-7.6V22.7a7.6,7.6,0,0,1,7.6-7.6H42.6a7.6,7.6,0,0,1,7.6,7.6V42.8A7.47,7.47,0,0,1,42.7,50.5Z" transform="translate(-2.9 -9.9)"/><path class="cls-5" d="M47.9,55.7H21a7.6,7.6,0,0,1-7.6-7.6V27.9A7.6,7.6,0,0,1,21,20.3H47.9a7.6,7.6,0,0,1,7.6,7.6V48A7.62,7.62,0,0,1,47.9,55.7Z" transform="translate(-2.9 -9.9)"/><line class="cls-6" x1="31.4" y1="32.2" x2="23.4" y2="25.6"/><line class="cls-6" x1="31.8" y1="32.2" x2="39.8" y2="25.6"/><path class="cls-1" d="M209.6,48.3a1.08,1.08,0,0,1-.7.3h-1.4a0.91,0.91,0,0,1-.7-0.3,1.08,1.08,0,0,1-.3-0.7V29.5a0.91,0.91,0,0,1,.3-0.7,1.08,1.08,0,0,1,.7-0.3h1.4a0.91,0.91,0,0,1,.7.3,1.08,1.08,0,0,1,.3.7V47.6A0.91,0.91,0,0,1,209.6,48.3Z" transform="translate(-2.9 -9.9)"/></svg>