<svg xmlns="http://www.w3.org/2000/svg" viewBox="0 0 1091.87 176.89"><defs><style>.cls-1,.cls-2,.cls-3{fill:#fff;}.cls-1{opacity:0.55;}.cls-3{opacity:0.2;}.cls-4{fill:none;stroke:#292e49;stroke-linecap:round;stroke-miterlimit:10;stroke-width:3px;}</style></defs><title>Fichier 14x</title><g id="Calque_2" data-name="Calque 2"><g id="Calque_1-2" data-name="Calque 1"><path class="cls-1" d="M793.12,58.89a3.86,3.86,0,0,1-2.83,1.19H781.8a4.07,4.07,0,0,1-4-4V47.56a4.07,4.07,0,0,1,4-4h8.49a4.07,4.07,0,0,1,4,4v8.49A3.87,3.87,0,0,1,793.12,58.89Z"/><path class="cls-2" d="M256.77,52.44Q251.71,58,251.71,67v4h15.2A7.18,7.18,0,0,1,272,72.85a6.18,6.18,0,0,1,1.94,4.77A5.83,5.83,0,0,1,272,82.09a7.17,7.17,0,0,1-5.07,1.79h-15.2V142a7.45,7.45,0,0,1-2.09,5.51,7.85,7.85,0,0,1-5.81,2.09,7.13,7.13,0,0,1-5.14-2.09,7.31,7.31,0,0,1-2.16-5.51V83.88H230.1A7.17,7.17,0,0,1,225,82.09a5.83,5.83,0,0,1-1.94-4.47A6.18,6.18,0,0,1,225,72.85a7.17,7.17,0,0,1,5.07-1.79h6.41V68.53A38.88,38.88,0,0,1,240.76,50a30.43,30.43,0,0,1,11.92-12.37,34.6,34.6,0,0,1,17.51-4.4,7.85,7.85,0,0,1,5.44,1.94,6.68,6.68,0,0,1,0,9.83,7.84,7.84,0,0,1-5.44,1.94Q261.84,46.92,256.77,52.44Z"/><path class="cls-2" d="M332.46,69.57q4.47,2.38,4.47,6a5.26,5.26,0,0,1-.15,1.49q-1.34,4.77-6,4.77a12.37,12.37,0,0,1-2.23-.3,58.86,58.86,0,0,0-9.69-1q-10.73,0-17.28,4.92a15.71,15.71,0,0,0-6.56,13.26v43.51a7.64,7.64,0,0,1-1.86,5.51q-1.86,1.94-5.59,1.94a7.63,7.63,0,0,1-5.51-1.86q-1.94-1.86-1.94-5.59V75.53a6.75,6.75,0,0,1,7.45-7.45q7.45,0,7.45,7.45v2.83a31.44,31.44,0,0,1,11-8.2,33.45,33.45,0,0,1,14-3Q328,67.19,332.46,69.57Z"/><path class="cls-2" d="M408.31,112.26a6.8,6.8,0,0,1-4.92,1.86H346.77A26.24,26.24,0,0,0,356.23,131q7.82,6.41,19.15,6.41a29,29,0,0,0,9.31-1.64,27.78,27.78,0,0,0,8-4,7.73,7.73,0,0,1,4.92-1.64,6.41,6.41,0,0,1,4.47,1.49,6.51,6.51,0,0,1,2.68,5.07,5.4,5.4,0,0,1-2.38,4.47,41.21,41.21,0,0,1-12.59,6.56,45.51,45.51,0,0,1-36.28-2.76,38.37,38.37,0,0,1-15.12-14.68,41.7,41.7,0,0,1-5.44-21.31,44.07,44.07,0,0,1,5.14-21.38,37.18,37.18,0,0,1,14.3-14.75,40.83,40.83,0,0,1,20.79-5.29q11.47,0,19.82,5.07a33.43,33.43,0,0,1,12.81,14.16,46.68,46.68,0,0,1,4.47,20.86A6.24,6.24,0,0,1,408.31,112.26Zm-52.82-26a26.75,26.75,0,0,0-8.57,15.94h49.62q-1.34-10-7.45-15.94t-15.94-6Q362.26,80.3,355.49,86.26Z"/><path class="cls-2" d="M488.32,112.26a6.8,6.8,0,0,1-4.92,1.86H426.78A26.24,26.24,0,0,0,436.24,131q7.82,6.41,19.15,6.41a29,29,0,0,0,9.31-1.64,27.78,27.78,0,0,0,8-4,7.73,7.73,0,0,1,4.92-1.64,6.41,6.41,0,0,1,4.47,1.49,6.51,6.51,0,0,1,2.68,5.07,5.4,5.4,0,0,1-2.38,4.47,41.21,41.21,0,0,1-12.59,6.56,45.51,45.51,0,0,1-36.28-2.76,38.37,38.37,0,0,1-15.12-14.68,41.7,41.7,0,0,1-5.44-21.31,44.07,44.07,0,0,1,5.14-21.38,37.18,37.18,0,0,1,14.3-14.75,40.83,40.83,0,0,1,20.79-5.29q11.47,0,19.82,5.07a33.43,33.43,0,0,1,12.81,14.16,46.68,46.68,0,0,1,4.47,20.86A6.24,6.24,0,0,1,488.32,112.26Zm-52.82-26a26.75,26.75,0,0,0-8.57,15.94h49.62q-1.34-10-7.45-15.94t-15.94-6Q442.28,80.3,435.5,86.26Z"/><path class="cls-1" d="M530.24,176.89h-6.11a3.56,3.56,0,0,1-3.58-3.58,3.26,3.26,0,0,1,.15-1L535,141.13,505.5,75.72a3.26,3.26,0,0,1-.15-1,3.56,3.56,0,0,1,3.58-3.58H515q3,0,4.32,3.58l22.95,50.66,23.24-50.66q1.34-3.58,4.32-3.58H576a3.56,3.56,0,0,1,3.58,3.58,3.35,3.35,0,0,1-.15,1l-44.85,97.6Q533.22,176.89,530.24,176.89Z"/><path class="cls-1" d="M646.59,110q0,3.58-.3,6.85-1.34,15.2-10.5,24.21t-24.81,9q-15.64,0-24.81-9t-10.5-24.21q-.15-1.64-.15-6.85,0-5.51.15-7.15,1.19-15.2,10.43-24.21t24.88-9q15.64,0,24.88,9t10.43,24.21Q646.59,106.12,646.59,110ZM626.4,88.24Q621,82.43,611,82.43t-15.42,5.81q-5.44,5.81-6.33,15.35-.15,1.79-.15,6.41t.15,6.11q.89,9.54,6.33,15.35T611,137.26q10,0,15.42-5.81t6.33-15.35q.3-3.28.3-6.11t-.3-6.41Q631.84,94.05,626.4,88.24Z"/><path class="cls-1" d="M653.12,72.3A3.87,3.87,0,0,1,656,71.1h5.51a4.07,4.07,0,0,1,4,4v39.34q0,11.32,5.14,17.06t15,5.74q9.53,0,14.83-5.81t5.29-17V75.13a4.07,4.07,0,0,1,4-4h5.51a4.07,4.07,0,0,1,4,4v69.43a4.07,4.07,0,0,1-4,4h-5.51a4.07,4.07,0,0,1-4-4v-4.62q-7.75,10.13-22.35,10.13-14.3,0-22.87-8.94t-8.57-24.44V75.13A3.87,3.87,0,0,1,653.12,72.3Z"/><path class="cls-1" d="M769.26,72.3a3.87,3.87,0,0,1,1.19,2.83v4.77a4.07,4.07,0,0,1-4,4h-8.64q-8.35,0-12.74,4.4t-4.4,12.74v43.51a4.07,4.07,0,0,1-4,4h-5.51a4.07,4.07,0,0,1-4-4V75.13a4.07,4.07,0,0,1,4-4h5.51a4.07,4.07,0,0,1,4,4v4.62a18.65,18.65,0,0,1,7.15-6.56,24.38,24.38,0,0,1,10.88-2.09h7.75A3.87,3.87,0,0,1,769.26,72.3Z"/><path class="cls-1" d="M868.29,147.39a3.86,3.86,0,0,1-2.83,1.19h-5.51a4.07,4.07,0,0,1-4-4V105.22q0-11.17-5.51-17t-15.35-5.81q-9.69,0-15.27,5.81t-5.59,17v39.34a4.07,4.07,0,0,1-4,4h-5.51a4.07,4.07,0,0,1-4-4V75.13a4.07,4.07,0,0,1,4-4h5.51a4.07,4.07,0,0,1,4,4v4.62a25.53,25.53,0,0,1,9-7.23,30.91,30.91,0,0,1,14.08-2.91,34,34,0,0,1,16.69,4,28.39,28.39,0,0,1,11.4,11.55,36.69,36.69,0,0,1,4.1,17.81v41.57A3.87,3.87,0,0,1,868.29,147.39Z"/><path class="cls-1" d="M948.17,109.69q0,3.43-.15,4.92a41.12,41.12,0,0,1-5,18.77A32.13,32.13,0,0,1,931,145.75a33.07,33.07,0,0,1-16.76,4.32q-15.5,0-23.09-10.13v4.62a4.07,4.07,0,0,1-4,4h-5.51a4.07,4.07,0,0,1-4-4V46.82a4.07,4.07,0,0,1,4-4h5.51a4.07,4.07,0,0,1,4,4V79.75a25.53,25.53,0,0,1,9-7.23,30.91,30.91,0,0,1,14.08-2.91A33,33,0,0,1,931,73.93a32.48,32.48,0,0,1,12,12.29,40.64,40.64,0,0,1,5,18.7Q948.17,106.42,948.17,109.69Zm-20.12,21.38q5.66-6.18,6.41-17.06.15-1.49.15-4.17,0-12.66-5.74-20t-16.17-7.38q-9.39,0-15,5.81t-6.56,16.24Q891,106,891,110.29t.15,6q.74,9.69,6.63,15.35t15,5.66Q922.39,137.26,928.06,131.08Z"/><path class="cls-1" d="M1023.46,110q0,3.58-.3,6.85-1.34,15.2-10.5,24.21t-24.81,9q-15.64,0-24.81-9t-10.5-24.21q-.15-1.64-.15-6.85,0-5.51.15-7.15,1.19-15.2,10.43-24.21t24.88-9q15.64,0,24.88,9t10.43,24.21Q1023.46,106.12,1023.46,110Zm-20.19-21.75q-5.44-5.81-15.42-5.81t-15.42,5.81Q967,94,966.09,103.59q-.15,1.79-.15,6.41t.15,6.11q.89,9.54,6.33,15.35t15.42,5.81q10,0,15.42-5.81t6.33-15.35q.3-3.28.3-6.11t-.3-6.41Q1008.71,94.05,1003.27,88.24Z"/><path class="cls-1" d="M1034.36,145.75a15.56,15.56,0,0,1-2.09,2,4.21,4.21,0,0,1-2.68.82h-6.85a3.44,3.44,0,0,1-2.53-1,3.27,3.27,0,0,1-1-2.38,3.66,3.66,0,0,1,.6-2.09L1047,108.95l-25.78-32.33a3.66,3.66,0,0,1-.6-2.09,3.28,3.28,0,0,1,1-2.38,3.45,3.45,0,0,1,2.53-1h7.15a4.22,4.22,0,0,1,2.68.82,15.79,15.79,0,0,1,2.09,2L1056,98.82l19.67-24.88a15.56,15.56,0,0,1,2.09-2,4.22,4.22,0,0,1,2.68-.82h6.85a3.46,3.46,0,0,1,2.53,1,3.29,3.29,0,0,1,1,2.38,3.68,3.68,0,0,1-.6,2.09l-25.93,32.63,27,33.82a3.68,3.68,0,0,1,.6,2.09,3.29,3.29,0,0,1-1,2.38,3.45,3.45,0,0,1-2.53,1h-7.15a4.2,4.2,0,0,1-2.68-.82,15.33,15.33,0,0,1-2.09-2l-21-26.37Z"/><rect class="cls-3" width="161.66" height="135.56" rx="15" ry="15"/><rect class="cls-1" x="20" y="20" width="161.66" height="135.56" rx="15" ry="15"/><rect class="cls-2" x="40" y="40" width="161.66" height="135.56" rx="15" ry="15"/><line class="cls-4" x1="120.55" y1="123.29" x2="89.64" y2="98.27"/><line class="cls-4" x1="121.82" y1="123.29" x2="152.73" y2="98.27"/><path class="cls-1" d="M791.63,147.39a3.86,3.86,0,0,1-2.83,1.19h-5.51a4.07,4.07,0,0,1-4-4V75.13a4.07,4.07,0,0,1,4-4h5.51a4.07,4.07,0,0,1,4,4v69.43A3.87,3.87,0,0,1,791.63,147.39Z"/></g></g></svg>