<svg id="Calque_1" data-name="Calque 1" xmlns="http://www.w3.org/2000/svg" viewBox="0 0 1153.58 365.8"><defs><style>.cls-1{fill:#1e88e5;}.cls-2,.cls-3,.cls-5,.cls-6{fill:#fff;}.cls-2{opacity:0.55;}.cls-3{font-size:149px;font-family:Rubik-Regular, Rubik;letter-spacing:-0.06em;}.cls-4{letter-spacing:-0.07em;}.cls-5{opacity:0.2;}.cls-7{fill:none;stroke:#1e88e5;stroke-linecap:round;stroke-miterlimit:10;stroke-width:3px;}</style></defs><title>Plan de travail 1</title><rect class="cls-1" width="1153.58" height="365.8"/><path class="cls-2" d="M833.58,145.49a3.86,3.86,0,0,1-2.83,1.19h-8.49a4.07,4.07,0,0,1-4-4v-8.49a4.07,4.07,0,0,1,4-4h8.49a4.07,4.07,0,0,1,4,4v8.49A3.87,3.87,0,0,1,833.58,145.49Z"/><text class="cls-3" transform="translate(299.07 235.19)">f<tspan class="cls-4" x="48.57" y="0">r</tspan><tspan x="93.72" y="0">ee</tspan></text><path class="cls-2" d="M570.69,263.5h-6.11a3.56,3.56,0,0,1-3.58-3.58,3.26,3.26,0,0,1,.15-1l14.3-31.14L546,162.33a3.26,3.26,0,0,1-.15-1,3.56,3.56,0,0,1,3.58-3.58h6.11q3,0,4.32,3.58l22.95,50.66L606,161.28q1.34-3.58,4.32-3.58h6.11a3.56,3.56,0,0,1,3.58,3.58,3.35,3.35,0,0,1-.15,1L575,259.92Q573.67,263.5,570.69,263.5Z"/><path class="cls-2" d="M687,196.6q0,3.58-.3,6.85-1.34,15.2-10.5,24.21t-24.81,9q-15.64,0-24.81-9t-10.5-24.21q-.15-1.64-.15-6.85,0-5.51.15-7.15,1.19-15.2,10.43-24.21t24.88-9q15.64,0,24.88,9t10.43,24.21Q687,192.72,687,196.6Zm-20.19-21.75Q661.41,169,651.43,169T636,174.84q-5.44,5.81-6.33,15.35-.15,1.79-.15,6.41t.15,6.11q.89,9.54,6.33,15.35t15.42,5.81q10,0,15.42-5.81t6.33-15.35q.3-3.28.3-6.11t-.3-6.41Q672.29,180.66,666.85,174.84Z"/><path class="cls-2" d="M693.58,158.9a3.87,3.87,0,0,1,2.83-1.19h5.51a4.07,4.07,0,0,1,4,4v39.34q0,11.32,5.14,17.06t15,5.74q9.53,0,14.83-5.81t5.29-17V161.73a4.07,4.07,0,0,1,4-4h5.51a4.07,4.07,0,0,1,4,4v69.43a4.07,4.07,0,0,1-4,4H750.2a4.07,4.07,0,0,1-4-4v-4.62q-7.75,10.13-22.35,10.13-14.3,0-22.87-8.94t-8.57-24.44V161.73A3.87,3.87,0,0,1,693.58,158.9Z"/><path class="cls-2" d="M809.71,158.9a3.87,3.87,0,0,1,1.19,2.83v4.77a4.07,4.07,0,0,1-4,4h-8.64q-8.35,0-12.74,4.4t-4.4,12.74v43.51a4.07,4.07,0,0,1-4,4h-5.51a4.07,4.07,0,0,1-4-4V161.73a4.07,4.07,0,0,1,4-4h5.51a4.07,4.07,0,0,1,4,4v4.62a18.65,18.65,0,0,1,7.15-6.56,24.38,24.38,0,0,1,10.88-2.09h7.75A3.87,3.87,0,0,1,809.71,158.9Z"/><path class="cls-2" d="M908.74,234a3.86,3.86,0,0,1-2.83,1.19H900.4a4.07,4.07,0,0,1-4-4V191.83q0-11.17-5.51-17T875.51,169q-9.69,0-15.27,5.81t-5.59,17v39.34a4.07,4.07,0,0,1-4,4h-5.51a4.07,4.07,0,0,1-4-4V161.73a4.07,4.07,0,0,1,4-4h5.51a4.07,4.07,0,0,1,4,4v4.62a25.53,25.53,0,0,1,9-7.23,30.91,30.91,0,0,1,14.08-2.91,34,34,0,0,1,16.69,4,28.39,28.39,0,0,1,11.4,11.55,36.69,36.69,0,0,1,4.1,17.81v41.57A3.87,3.87,0,0,1,908.74,234Z"/><path class="cls-2" d="M988.63,196.3q0,3.43-.15,4.92a41.12,41.12,0,0,1-5,18.77,32.13,32.13,0,0,1-12.07,12.37,33.07,33.07,0,0,1-16.76,4.32q-15.5,0-23.09-10.13v4.62a4.07,4.07,0,0,1-4,4H922a4.07,4.07,0,0,1-4-4V133.42a4.07,4.07,0,0,1,4-4h5.51a4.07,4.07,0,0,1,4,4v32.93a25.53,25.53,0,0,1,9-7.23,30.91,30.91,0,0,1,14.08-2.91,33,33,0,0,1,16.84,4.32,32.48,32.48,0,0,1,12,12.29,40.64,40.64,0,0,1,5,18.7Q988.62,193,988.63,196.3Zm-20.12,21.38q5.66-6.18,6.41-17.06.15-1.49.15-4.17,0-12.66-5.74-20T953.16,169q-9.39,0-15,5.81t-6.56,16.24q-.15,1.49-.15,5.81t.15,6q.74,9.69,6.63,15.35t15,5.66Q962.85,223.86,968.51,217.68Z"/><path class="cls-2" d="M1063.91,196.6q0,3.58-.3,6.85-1.34,15.2-10.5,24.21t-24.81,9q-15.64,0-24.81-9T993,203.45q-.15-1.64-.15-6.85,0-5.51.15-7.15,1.19-15.2,10.43-24.21t24.88-9q15.64,0,24.88,9t10.43,24.21Q1063.91,192.72,1063.91,196.6Zm-20.19-21.75q-5.44-5.81-15.42-5.81t-15.42,5.81q-5.44,5.81-6.33,15.35-.15,1.79-.15,6.41t.15,6.11q.89,9.54,6.33,15.35t15.42,5.81q10,0,15.42-5.81t6.33-15.35q.3-3.28.3-6.11t-.3-6.41Q1049.16,180.66,1043.72,174.84Z"/><path class="cls-2" d="M1074.81,232.36a15.56,15.56,0,0,1-2.09,2,4.21,4.21,0,0,1-2.68.82h-6.85a3.44,3.44,0,0,1-2.53-1,3.27,3.27,0,0,1-1-2.38,3.66,3.66,0,0,1,.6-2.09l27.27-34.12-25.78-32.33a3.66,3.66,0,0,1-.6-2.09,3.28,3.28,0,0,1,1-2.38,3.45,3.45,0,0,1,2.53-1h7.15a4.22,4.22,0,0,1,2.68.82,15.79,15.79,0,0,1,2.09,2l19.82,24.88,19.67-24.88a15.56,15.56,0,0,1,2.09-2,4.22,4.22,0,0,1,2.68-.82h6.85a3.46,3.46,0,0,1,2.53,1,3.29,3.29,0,0,1,1,2.38,3.68,3.68,0,0,1-.6,2.09l-25.93,32.63,27,33.82a3.68,3.68,0,0,1,.6,2.09,3.29,3.29,0,0,1-1,2.38,3.45,3.45,0,0,1-2.53,1h-7.15a4.2,4.2,0,0,1-2.68-.82,15.33,15.33,0,0,1-2.09-2l-21-26.37Z"/><rect class="cls-5" x="40.46" y="86.6" width="161.66" height="135.56" rx="15" ry="15"/><rect class="cls-2" x="60.46" y="106.6" width="161.66" height="135.56" rx="15" ry="15"/><rect class="cls-6" x="80.46" y="126.6" width="161.66" height="135.56" rx="15" ry="15"/><line class="cls-7" x1="161" y1="209.9" x2="130.1" y2="184.87"/><line class="cls-7" x1="162.27" y1="209.9" x2="193.18" y2="184.87"/><path class="cls-2" d="M832.09,234a3.86,3.86,0,0,1-2.83,1.19h-5.51a4.07,4.07,0,0,1-4-4V161.73a4.07,4.07,0,0,1,4-4h5.51a4.07,4.07,0,0,1,4,4v69.43A3.87,3.87,0,0,1,832.09,234Z"/></svg>